<svg version="1.1" xmlns="http://www.w3.org/2000/svg" xmlns:xlink="http://www.w3.org/1999/xlink" width="962.2936353752996" height="576.7083721113369"><defs/><g><rect fill="#F8F8F9" stroke="none" x="0" y="0" width="962.2936353752996" height="576.7083721113369" transform="matrix(1 0 0 1 0 0)"/><g><path fill="none" stroke="#adb5bd" paint-order="fill stroke markers" d=" M 604.5555205863834 147.2945556640625 L 596.5555205863834 152.2945556640625 L 596.5555205863834 142.2945556640625 L 604.5555205863834 147.2945556640625" stroke-miterlimit="10" stroke-dasharray=""/><path fill="none" stroke="#adb5bd" paint-order="fill stroke markers" d=" M 596.5555205863834 147.2945556640625 C 696.5555205863834 147.2945556640625 598.8391278658834 99.2945556640625 698.8391278658834 99.2945556640625" stroke-miterlimit="10" stroke-dasharray=""/><path fill="#adb5bd" stroke="#adb5bd" paint-order="fill stroke markers" d=" M 698.8391278658834 99.2945556640625 L 690.8391278658834 104.2945556640625 L 690.8391278658834 94.2945556640625 L 698.8391278658834 99.2945556640625 Z M 604.5555205863834 165.2945556640625 L 596.5555205863834 170.2945556640625 L 596.5555205863834 160.2945556640625 L 604.5555205863834 165.2945556640625" stroke-miterlimit="10" stroke-dasharray=""/><path fill="none" stroke="#adb5bd" paint-order="fill stroke markers" d=" M 596.5555205863834 165.2945556640625 C 696.5555205863834 165.2945556640625 602.2936360383644 248.2945556640625 702.2936360383644 248.2945556640625" stroke-miterlimit="10" stroke-dasharray=""/><path fill="#adb5bd" stroke="#adb5bd" paint-order="fill stroke markers" d=" M 702.2936360383644 248.2945556640625 L 694.2936360383644 253.2945556640625 L 694.2936360383644 243.2945556640625 L 702.2936360383644 248.2945556640625 Z M 324.2215362113834 183.2945556640625 L 332.2215362113834 188.2945556640625 L 332.2215362113834 178.2945556640625 L 324.2215362113834 183.2945556640625" stroke-miterlimit="10" stroke-dasharray=""/><path fill="none" stroke="#adb5bd" paint-order="fill stroke markers" d=" M 332.2215362113834 183.2945556640625 C 232.2215362113834 183.2945556640625 340.0000006630649 328.2945556640625 240.0000006630649 328.2945556640625" stroke-miterlimit="10" stroke-dasharray=""/><path fill="#adb5bd" stroke="#adb5bd" paint-order="fill stroke markers" d=" M 240.0000006630649 328.2945556640625 L 248.0000006630649 333.2945556640625 L 248.0000006630649 323.2945556640625 L 240.0000006630649 328.2945556640625 Z M 591.2402185830372 453.2945556640625 L 583.2402185830372 458.2945556640625 L 583.2402185830372 448.2945556640625 L 591.2402185830372 453.2945556640625" stroke-miterlimit="10" stroke-dasharray=""/><path fill="none" stroke="#adb5bd" paint-order="fill stroke markers" d=" M 583.2402185830372 453.2945556640625 C 683.2402185830372 453.2945556640625 602.2936360383644 248.2945556640625 702.2936360383644 248.2945556640625" stroke-miterlimit="10" stroke-dasharray=""/><path fill="#adb5bd" stroke="#adb5bd" paint-order="fill stroke markers" d=" M 702.2936360383644 248.2945556640625 L 694.2936360383644 253.2945556640625 L 694.2936360383644 243.2945556640625 L 702.2936360383644 248.2945556640625 Z M 340.2089685830371 471.2945556640625 L 348.2089685830371 476.2945556640625 L 348.2089685830371 466.2945556640625 L 340.2089685830371 471.2945556640625" stroke-miterlimit="10" stroke-dasharray=""/><path fill="none" stroke="#adb5bd" paint-order="fill stroke markers" d=" M 348.2089685830371 471.2945556640625 C 248.20896858303712 471.2945556640625 340.0000006630649 328.2945556640625 240.0000006630649 328.2945556640625" stroke-miterlimit="10" stroke-dasharray=""/><path fill="#adb5bd" stroke="none" paint-order="stroke fill markers" d=" M 240.0000006630649 328.2945556640625 L 248.0000006630649 333.2945556640625 L 248.0000006630649 323.2945556640625 L 240.0000006630649 328.2945556640625"/><rect fill="#fff" stroke="none" x="193.95115727927583" y="115.44617480440634" width="180" height="102" transform="matrix(1 0 0 1 -133.95115661621094 174.2945556640625)"/><rect fill="#adb5bd" stroke="none" x="193.95115727927583" y="115.44617480440634" width="180" height="30" transform="matrix(1 0 0 1 -133.95115661621094 174.2945556640625)"/><text fill="#333" stroke="none" font-family="Roboto, &quot;Helvetica Neue&quot;, Arial, sans-serif" font-size="12px" font-style="normal" font-weight="bold" text-decoration="undefined" x="205.95115727927583" y="124.44617480440634" text-anchor="start" dominant-baseline="text-before-edge" transform="matrix(1 0 0 1 -133.95115661621094 174.2945556640625)">dim_tempo</text><rect fill="#F8F8F9" stroke="none" x="193.95115727927583" y="145.44617480440633" width="180" height="18" transform="matrix(1 0 0 1 -133.95115661621094 174.2945556640625)"/><text fill="#555" stroke="none" font-family="Roboto, &quot;Helvetica Neue&quot;, Arial, sans-serif" font-size="12px" font-style="normal" font-weight="bold" text-decoration="undefined" x="326.25514287497896" y="148.44617480440633" text-anchor="start" dominant-baseline="text-before-edge" transform="matrix(1 0 0 1 -133.95115661621094 174.2945556640625)">integer</text><text fill="#555" stroke="none" font-family="Roboto, &quot;Helvetica Neue&quot;, Arial, sans-serif" font-size="12px" font-style="normal" font-weight="bold" text-decoration="undefined" x="205.95115727927583" y="148.44617480440633" text-anchor="start" dominant-baseline="text-before-edge" transform="matrix(1 0 0 1 -133.95115661621094 174.2945556640625)">sk_tempo</text><path fill="none" stroke="#eee" paint-order="fill stroke markers" d=" M 60.000000663064895 337.7407304684688 L 240.0000006630649 337.7407304684688" stroke-miterlimit="10" stroke-dasharray=""/><rect fill="#F8F8F9" stroke="none" x="193.95115727927583" y="163.44617480440633" width="180" height="18" transform="matrix(1 0 0 1 -133.95115661621094 174.2945556640625)"/><text fill="#555" stroke="none" font-family="Roboto, &quot;Helvetica Neue&quot;, Arial, sans-serif" font-size="12px" font-style="normal" font-weight="normal" text-decoration="undefined" x="328.17771977927583" y="166.44617480440633" text-anchor="start" dominant-baseline="text-before-edge" transform="matrix(1 0 0 1 -133.95115661621094 174.2945556640625)">integer</text><text fill="#555" stroke="none" font-family="Roboto, &quot;Helvetica Neue&quot;, Arial, sans-serif" font-size="12px" font-style="normal" font-weight="normal" text-decoration="undefined" x="205.95115727927583" y="166.44617480440633" text-anchor="start" dominant-baseline="text-before-edge" transform="matrix(1 0 0 1 -133.95115661621094 174.2945556640625)">dia</text><path fill="none" stroke="#eee" paint-order="fill stroke markers" d=" M 60.000000663064895 355.7407304684688 L 240.0000006630649 355.7407304684688" stroke-miterlimit="10" stroke-dasharray=""/><rect fill="#F8F8F9" stroke="none" x="193.95115727927583" y="181.44617480440633" width="180" height="18" transform="matrix(1 0 0 1 -133.95115661621094 174.2945556640625)"/><text fill="#555" stroke="none" font-family="Roboto, &quot;Helvetica Neue&quot;, Arial, sans-serif" font-size="12px" font-style="normal" font-weight="normal" text-decoration="undefined" x="328.17771977927583" y="184.44617480440633" text-anchor="start" dominant-baseline="text-before-edge" transform="matrix(1 0 0 1 -133.95115661621094 174.2945556640625)">integer</text><text fill="#555" stroke="none" font-family="Roboto, &quot;Helvetica Neue&quot;, Arial, sans-serif" font-size="12px" font-style="normal" font-weight="normal" text-decoration="undefined" x="205.95115727927583" y="184.44617480440633" text-anchor="start" dominant-baseline="text-before-edge" transform="matrix(1 0 0 1 -133.95115661621094 174.2945556640625)">mes</text><path fill="none" stroke="#eee" paint-order="fill stroke markers" d=" M 60.000000663064895 373.7407304684688 L 240.0000006630649 373.7407304684688" stroke-miterlimit="10" stroke-dasharray=""/><rect fill="#F8F8F9" stroke="none" x="193.95115727927583" y="199.44617480440633" width="180" height="18" transform="matrix(1 0 0 1 -133.95115661621094 174.2945556640625)"/><text fill="#555" stroke="none" font-family="Roboto, &quot;Helvetica Neue&quot;, Arial, sans-serif" font-size="12px" font-style="normal" font-weight="normal" text-decoration="undefined" x="328.17771977927583" y="202.44617480440633" text-anchor="start" dominant-baseline="text-before-edge" transform="matrix(1 0 0 1 -133.95115661621094 174.2945556640625)">integer</text><text fill="#555" stroke="none" font-family="Roboto, &quot;Helvetica Neue&quot;, Arial, sans-serif" font-size="12px" font-style="normal" font-weight="normal" text-decoration="undefined" x="205.95115727927583" y="202.44617480440633" text-anchor="start" dominant-baseline="text-before-edge" transform="matrix(1 0 0 1 -133.95115661621094 174.2945556640625)">ano</text><path fill="none" stroke="#eee" paint-order="fill stroke markers" d=" M 60.000000663064895 391.7407304684688 L 240.0000006630649 391.7407304684688" stroke-miterlimit="10" stroke-dasharray=""/><rect fill="#fff" stroke="none" x="466.17269282759435" y="-66.00168651069636" width="264.333984375" height="264" transform="matrix(1 0 0 1 -133.95115661621094 174.2945556640625)"/><rect fill="#adb5bd" stroke="none" x="466.17269282759435" y="-66.00168651069636" width="264.333984375" height="30" transform="matrix(1 0 0 1 -133.95115661621094 174.2945556640625)"/><text fill="#333" stroke="none" font-family="Roboto, &quot;Helvetica Neue&quot;, Arial, sans-serif" font-size="12px" font-style="normal" font-weight="bold" text-decoration="undefined" x="478.17269282759435" y="-57.00168651069636" text-anchor="start" dominant-baseline="text-before-edge" transform="matrix(1 0 0 1 -133.95115661621094 174.2945556640625)">fato_atividades</text><rect fill="#F8F8F9" stroke="none" x="466.17269282759435" y="-36.00168651069636" width="264.333984375" height="18" transform="matrix(1 0 0 1 -133.95115661621094 174.2945556640625)"/><text fill="#555" stroke="none" font-family="Roboto, &quot;Helvetica Neue&quot;, Arial, sans-serif" font-size="12px" font-style="normal" font-weight="bold" text-decoration="undefined" x="682.8106627982975" y="-33.00168651069636" text-anchor="start" dominant-baseline="text-before-edge" transform="matrix(1 0 0 1 -133.95115661621094 174.2945556640625)">integer</text><text fill="#555" stroke="none" font-family="Roboto, &quot;Helvetica Neue&quot;, Arial, sans-serif" font-size="12px" font-style="normal" font-weight="bold" text-decoration="undefined" x="478.17269282759435" y="-33.00168651069636" text-anchor="start" dominant-baseline="text-before-edge" transform="matrix(1 0 0 1 -133.95115661621094 174.2945556640625)">sk_fato_atividade</text><path fill="none" stroke="#eee" paint-order="fill stroke markers" d=" M 332.2215362113834 156.29286915336615 L 596.5555205863834 156.29286915336615" stroke-miterlimit="10" stroke-dasharray=""/><rect fill="#F8F8F9" stroke="none" x="466.17269282759435" y="-18.00168651069636" width="264.333984375" height="18" transform="matrix(1 0 0 1 -133.95115661621094 174.2945556640625)"/><text fill="#555" stroke="none" font-family="Roboto, &quot;Helvetica Neue&quot;, Arial, sans-serif" font-size="12px" font-style="normal" font-weight="normal" text-decoration="undefined" x="684.7332397025943" y="-15.00168651069636" text-anchor="start" dominant-baseline="text-before-edge" transform="matrix(1 0 0 1 -133.95115661621094 174.2945556640625)">integer</text><text fill="#555" stroke="none" font-family="Roboto, &quot;Helvetica Neue&quot;, Arial, sans-serif" font-size="12px" font-style="normal" font-weight="normal" text-decoration="undefined" x="478.17269282759435" y="-15.00168651069636" text-anchor="start" dominant-baseline="text-before-edge" transform="matrix(1 0 0 1 -133.95115661621094 174.2945556640625)">sk_participante</text><path fill="none" stroke="#eee" paint-order="fill stroke markers" d=" M 332.2215362113834 174.29286915336615 L 596.5555205863834 174.29286915336615" stroke-miterlimit="10" stroke-dasharray=""/><rect fill="#F8F8F9" stroke="none" x="466.17269282759435" y="-0.001686510696359278" width="264.333984375" height="18" transform="matrix(1 0 0 1 -133.95115661621094 174.2945556640625)"/><text fill="#555" stroke="none" font-family="Roboto, &quot;Helvetica Neue&quot;, Arial, sans-serif" font-size="12px" font-style="normal" font-weight="normal" text-decoration="undefined" x="684.7332397025943" y="2.9983134893036407" text-anchor="start" dominant-baseline="text-before-edge" transform="matrix(1 0 0 1 -133.95115661621094 174.2945556640625)">integer</text><text fill="#555" stroke="none" font-family="Roboto, &quot;Helvetica Neue&quot;, Arial, sans-serif" font-size="12px" font-style="normal" font-weight="normal" text-decoration="undefined" x="478.17269282759435" y="2.9983134893036407" text-anchor="start" dominant-baseline="text-before-edge" transform="matrix(1 0 0 1 -133.95115661621094 174.2945556640625)">sk_evento</text><path fill="none" stroke="#eee" paint-order="fill stroke markers" d=" M 332.2215362113834 192.29286915336615 L 596.5555205863834 192.29286915336615" stroke-miterlimit="10" stroke-dasharray=""/><rect fill="#F8F8F9" stroke="none" x="466.17269282759435" y="17.99831348930364" width="264.333984375" height="18" transform="matrix(1 0 0 1 -133.95115661621094 174.2945556640625)"/><text fill="#555" stroke="none" font-family="Roboto, &quot;Helvetica Neue&quot;, Arial, sans-serif" font-size="12px" font-style="normal" font-weight="normal" text-decoration="undefined" x="684.7332397025943" y="20.99831348930364" text-anchor="start" dominant-baseline="text-before-edge" transform="matrix(1 0 0 1 -133.95115661621094 174.2945556640625)">integer</text><text fill="#555" stroke="none" font-family="Roboto, &quot;Helvetica Neue&quot;, Arial, sans-serif" font-size="12px" font-style="normal" font-weight="normal" text-decoration="undefined" x="478.17269282759435" y="20.99831348930364" text-anchor="start" dominant-baseline="text-before-edge" transform="matrix(1 0 0 1 -133.95115661621094 174.2945556640625)">sk_tempo</text><path fill="none" stroke="#eee" paint-order="fill stroke markers" d=" M 332.2215362113834 210.29286915336615 L 596.5555205863834 210.29286915336615" stroke-miterlimit="10" stroke-dasharray=""/><rect fill="#F8F8F9" stroke="none" x="466.17269282759435" y="35.99831348930364" width="264.333984375" height="18" transform="matrix(1 0 0 1 -133.95115661621094 174.2945556640625)"/><text fill="#555" stroke="none" font-family="Roboto, &quot;Helvetica Neue&quot;, Arial, sans-serif" font-size="12px" font-style="normal" font-weight="normal" text-decoration="undefined" x="696.9031615775943" y="38.99831348930364" text-anchor="start" dominant-baseline="text-before-edge" transform="matrix(1 0 0 1 -133.95115661621094 174.2945556640625)">float</text><text fill="#555" stroke="none" font-family="Roboto, &quot;Helvetica Neue&quot;, Arial, sans-serif" font-size="12px" font-style="normal" font-weight="normal" text-decoration="undefined" x="478.17269282759435" y="38.99831348930364" text-anchor="start" dominant-baseline="text-before-edge" transform="matrix(1 0 0 1 -133.95115661621094 174.2945556640625)">coeficiente_de_qualidade</text><path fill="none" stroke="#eee" paint-order="fill stroke markers" d=" M 332.2215362113834 228.29286915336615 L 596.5555205863834 228.29286915336615" stroke-miterlimit="10" stroke-dasharray=""/><rect fill="#F8F8F9" stroke="none" x="466.17269282759435" y="53.99831348930364" width="264.333984375" height="18" transform="matrix(1 0 0 1 -133.95115661621094 174.2945556640625)"/><text fill="#555" stroke="none" font-family="Roboto, &quot;Helvetica Neue&quot;, Arial, sans-serif" font-size="12px" font-style="normal" font-weight="normal" text-decoration="undefined" x="684.7332397025943" y="56.99831348930364" text-anchor="start" dominant-baseline="text-before-edge" transform="matrix(1 0 0 1 -133.95115661621094 174.2945556640625)">integer</text><text fill="#555" stroke="none" font-family="Roboto, &quot;Helvetica Neue&quot;, Arial, sans-serif" font-size="12px" font-style="normal" font-weight="normal" text-decoration="undefined" x="478.17269282759435" y="56.99831348930364" text-anchor="start" dominant-baseline="text-before-edge" transform="matrix(1 0 0 1 -133.95115661621094 174.2945556640625)">crescimento_de_interesse</text><path fill="none" stroke="#eee" paint-order="fill stroke markers" d=" M 332.2215362113834 246.29286915336615 L 596.5555205863834 246.29286915336615" stroke-miterlimit="10" stroke-dasharray=""/><path fill="#f2bc06" stroke="none" paint-order="stroke fill markers" d=" M 596.5555205863834 228.29286915336615 L 586.5555205863834 228.29286915336615 L 596.5555205863834 238.29286915336615"/><rect fill="#F8F8F9" stroke="none" x="466.17269282759435" y="71.99831348930364" width="264.333984375" height="18" transform="matrix(1 0 0 1 -133.95115661621094 174.2945556640625)"/><text fill="#555" stroke="none" font-family="Roboto, &quot;Helvetica Neue&quot;, Arial, sans-serif" font-size="12px" font-style="normal" font-weight="normal" text-decoration="undefined" x="678.1531615775943" y="74.99831348930364" text-anchor="start" dominant-baseline="text-before-edge" transform="matrix(1 0 0 1 -133.95115661621094 174.2945556640625)">boolean</text><text fill="#555" stroke="none" font-family="Roboto, &quot;Helvetica Neue&quot;, Arial, sans-serif" font-size="12px" font-style="normal" font-weight="normal" text-decoration="undefined" x="478.17269282759435" y="74.99831348930364" text-anchor="start" dominant-baseline="text-before-edge" transform="matrix(1 0 0 1 -133.95115661621094 174.2945556640625)">cresceu_interesse</text><path fill="none" stroke="#eee" paint-order="fill stroke markers" d=" M 332.2215362113834 264.29286915336615 L 596.5555205863834 264.29286915336615" stroke-miterlimit="10" stroke-dasharray=""/><path fill="#f2bc06" stroke="none" paint-order="stroke fill markers" d=" M 596.5555205863834 246.29286915336615 L 586.5555205863834 246.29286915336615 L 596.5555205863834 256.29286915336615"/><rect fill="#F8F8F9" stroke="none" x="466.17269282759435" y="89.99831348930364" width="264.333984375" height="18" transform="matrix(1 0 0 1 -133.95115661621094 174.2945556640625)"/><text fill="#555" stroke="none" font-family="Roboto, &quot;Helvetica Neue&quot;, Arial, sans-serif" font-size="12px" font-style="normal" font-weight="normal" text-decoration="undefined" x="678.1531615775943" y="92.99831348930364" text-anchor="start" dominant-baseline="text-before-edge" transform="matrix(1 0 0 1 -133.95115661621094 174.2945556640625)">boolean</text><text fill="#555" stroke="none" font-family="Roboto, &quot;Helvetica Neue&quot;, Arial, sans-serif" font-size="12px" font-style="normal" font-weight="normal" text-decoration="undefined" x="478.17269282759435" y="92.99831348930364" text-anchor="start" dominant-baseline="text-before-edge" transform="matrix(1 0 0 1 -133.95115661621094 174.2945556640625)">tem_interesse_em_stem</text><path fill="none" stroke="#eee" paint-order="fill stroke markers" d=" M 332.2215362113834 282.29286915336615 L 596.5555205863834 282.29286915336615" stroke-miterlimit="10" stroke-dasharray=""/><rect fill="#F8F8F9" stroke="none" x="466.17269282759435" y="107.99831348930364" width="264.333984375" height="18" transform="matrix(1 0 0 1 -133.95115661621094 174.2945556640625)"/><text fill="#555" stroke="none" font-family="Roboto, &quot;Helvetica Neue&quot;, Arial, sans-serif" font-size="12px" font-style="normal" font-weight="normal" text-decoration="undefined" x="678.1531615775943" y="110.99831348930364" text-anchor="start" dominant-baseline="text-before-edge" transform="matrix(1 0 0 1 -133.95115661621094 174.2945556640625)">boolean</text><text fill="#555" stroke="none" font-family="Roboto, &quot;Helvetica Neue&quot;, Arial, sans-serif" font-size="12px" font-style="normal" font-weight="normal" text-decoration="undefined" x="478.17269282759435" y="110.99831348930364" text-anchor="start" dominant-baseline="text-before-edge" transform="matrix(1 0 0 1 -133.95115661621094 174.2945556640625)">participacao_previa_stem</text><path fill="none" stroke="#eee" paint-order="fill stroke markers" d=" M 332.2215362113834 300.29286915336615 L 596.5555205863834 300.29286915336615" stroke-miterlimit="10" stroke-dasharray=""/><rect fill="#F8F8F9" stroke="none" x="466.17269282759435" y="125.99831348930364" width="264.333984375" height="18" transform="matrix(1 0 0 1 -133.95115661621094 174.2945556640625)"/><text fill="#555" stroke="none" font-family="Roboto, &quot;Helvetica Neue&quot;, Arial, sans-serif" font-size="12px" font-style="normal" font-weight="normal" text-decoration="undefined" x="684.7332397025943" y="128.99831348930365" text-anchor="start" dominant-baseline="text-before-edge" transform="matrix(1 0 0 1 -133.95115661621094 174.2945556640625)">integer</text><text fill="#555" stroke="none" font-family="Roboto, &quot;Helvetica Neue&quot;, Arial, sans-serif" font-size="12px" font-style="normal" font-weight="normal" text-decoration="undefined" x="478.17269282759435" y="128.99831348930365" text-anchor="start" dominant-baseline="text-before-edge" transform="matrix(1 0 0 1 -133.95115661621094 174.2945556640625)">nota_recomendacao</text><path fill="none" stroke="#eee" paint-order="fill stroke markers" d=" M 332.2215362113834 318.29286915336615 L 596.5555205863834 318.29286915336615" stroke-miterlimit="10" stroke-dasharray=""/><path fill="#f2bc06" stroke="none" paint-order="stroke fill markers" d=" M 596.5555205863834 300.29286915336615 L 586.5555205863834 300.29286915336615 L 596.5555205863834 310.29286915336615"/><rect fill="#F8F8F9" stroke="none" x="466.17269282759435" y="143.99831348930365" width="264.333984375" height="18" transform="matrix(1 0 0 1 -133.95115661621094 174.2945556640625)"/><text fill="#555" stroke="none" font-family="Roboto, &quot;Helvetica Neue&quot;, Arial, sans-serif" font-size="12px" font-style="normal" font-weight="normal" text-decoration="undefined" x="684.7332397025943" y="146.99831348930365" text-anchor="start" dominant-baseline="text-before-edge" transform="matrix(1 0 0 1 -133.95115661621094 174.2945556640625)">integer</text><text fill="#555" stroke="none" font-family="Roboto, &quot;Helvetica Neue&quot;, Arial, sans-serif" font-size="12px" font-style="normal" font-weight="normal" text-decoration="undefined" x="478.17269282759435" y="146.99831348930365" text-anchor="start" dominant-baseline="text-before-edge" transform="matrix(1 0 0 1 -133.95115661621094 174.2945556640625)">relevancia_tema</text><path fill="none" stroke="#eee" paint-order="fill stroke markers" d=" M 332.2215362113834 336.29286915336615 L 596.5555205863834 336.29286915336615" stroke-miterlimit="10" stroke-dasharray=""/><path fill="#f2bc06" stroke="none" paint-order="stroke fill markers" d=" M 596.5555205863834 318.29286915336615 L 586.5555205863834 318.29286915336615 L 596.5555205863834 328.29286915336615"/><rect fill="#F8F8F9" stroke="none" x="466.17269282759435" y="161.99831348930365" width="264.333984375" height="18" transform="matrix(1 0 0 1 -133.95115661621094 174.2945556640625)"/><text fill="#555" stroke="none" font-family="Roboto, &quot;Helvetica Neue&quot;, Arial, sans-serif" font-size="12px" font-style="normal" font-weight="normal" text-decoration="undefined" x="684.7332397025943" y="164.99831348930365" text-anchor="start" dominant-baseline="text-before-edge" transform="matrix(1 0 0 1 -133.95115661621094 174.2945556640625)">integer</text><text fill="#555" stroke="none" font-family="Roboto, &quot;Helvetica Neue&quot;, Arial, sans-serif" font-size="12px" font-style="normal" font-weight="normal" text-decoration="undefined" x="478.17269282759435" y="164.99831348930365" text-anchor="start" dominant-baseline="text-before-edge" transform="matrix(1 0 0 1 -133.95115661621094 174.2945556640625)">aplicabilidade_conhecimento</text><path fill="none" stroke="#eee" paint-order="fill stroke markers" d=" M 332.2215362113834 354.29286915336615 L 596.5555205863834 354.29286915336615" stroke-miterlimit="10" stroke-dasharray=""/><path fill="#f2bc06" stroke="none" paint-order="stroke fill markers" d=" M 596.5555205863834 336.29286915336615 L 586.5555205863834 336.29286915336615 L 596.5555205863834 346.29286915336615"/><rect fill="#F8F8F9" stroke="none" x="466.17269282759435" y="179.99831348930365" width="264.333984375" height="18" transform="matrix(1 0 0 1 -133.95115661621094 174.2945556640625)"/><text fill="#555" stroke="none" font-family="Roboto, &quot;Helvetica Neue&quot;, Arial, sans-serif" font-size="12px" font-style="normal" font-weight="normal" text-decoration="undefined" x="684.7332397025943" y="182.99831348930365" text-anchor="start" dominant-baseline="text-before-edge" transform="matrix(1 0 0 1 -133.95115661621094 174.2945556640625)">integer</text><text fill="#555" stroke="none" font-family="Roboto, &quot;Helvetica Neue&quot;, Arial, sans-serif" font-size="12px" font-style="normal" font-weight="normal" text-decoration="undefined" x="478.17269282759435" y="182.99831348930365" text-anchor="start" dominant-baseline="text-before-edge" transform="matrix(1 0 0 1 -133.95115661621094 174.2945556640625)">interesse_stem_pos</text><path fill="none" stroke="#eee" paint-order="fill stroke markers" d=" M 332.2215362113834 372.29286915336615 L 596.5555205863834 372.29286915336615" stroke-miterlimit="10" stroke-dasharray=""/><path fill="#f2bc06" stroke="none" paint-order="stroke fill markers" d=" M 596.5555205863834 354.29286915336615 L 586.5555205863834 354.29286915336615 L 596.5555205863834 364.29286915336615"/><rect fill="#fff" stroke="none" x="836.2447926545753" y="34.717209695513816" width="180" height="84" transform="matrix(1 0 0 1 -133.95115661621094 174.2945556640625)"/><rect fill="#adb5bd" stroke="none" x="836.2447926545753" y="34.717209695513816" width="180" height="30" transform="matrix(1 0 0 1 -133.95115661621094 174.2945556640625)"/><text fill="#333" stroke="none" font-family="Roboto, &quot;Helvetica Neue&quot;, Arial, sans-serif" font-size="12px" font-style="normal" font-weight="bold" text-decoration="undefined" x="848.2447926545753" y="43.717209695513816" text-anchor="start" dominant-baseline="text-before-edge" transform="matrix(1 0 0 1 -133.95115661621094 174.2945556640625)">dim_evento</text><rect fill="#F8F8F9" stroke="none" x="836.2447926545753" y="64.71720969551382" width="180" height="18" transform="matrix(1 0 0 1 -133.95115661621094 174.2945556640625)"/><text fill="#555" stroke="none" font-family="Roboto, &quot;Helvetica Neue&quot;, Arial, sans-serif" font-size="12px" font-style="normal" font-weight="bold" text-decoration="undefined" x="968.5487782502785" y="67.71720969551382" text-anchor="start" dominant-baseline="text-before-edge" transform="matrix(1 0 0 1 -133.95115661621094 174.2945556640625)">integer</text><text fill="#555" stroke="none" font-family="Roboto, &quot;Helvetica Neue&quot;, Arial, sans-serif" font-size="12px" font-style="normal" font-weight="bold" text-decoration="undefined" x="848.2447926545753" y="67.71720969551382" text-anchor="start" dominant-baseline="text-before-edge" transform="matrix(1 0 0 1 -133.95115661621094 174.2945556640625)">sk_evento</text><path fill="none" stroke="#eee" paint-order="fill stroke markers" d=" M 702.2936360383644 257.0117653595763 L 882.2936360383644 257.0117653595763" stroke-miterlimit="10" stroke-dasharray=""/><rect fill="#F8F8F9" stroke="none" x="836.2447926545753" y="82.71720969551382" width="180" height="18" transform="matrix(1 0 0 1 -133.95115661621094 174.2945556640625)"/><text fill="#555" stroke="none" font-family="Roboto, &quot;Helvetica Neue&quot;, Arial, sans-serif" font-size="12px" font-style="normal" font-weight="normal" text-decoration="undefined" x="986.5846364045753" y="85.71720969551382" text-anchor="start" dominant-baseline="text-before-edge" transform="matrix(1 0 0 1 -133.95115661621094 174.2945556640625)">text</text><text fill="#555" stroke="none" font-family="Roboto, &quot;Helvetica Neue&quot;, Arial, sans-serif" font-size="12px" font-style="normal" font-weight="normal" text-decoration="undefined" x="848.2447926545753" y="85.71720969551382" text-anchor="start" dominant-baseline="text-before-edge" transform="matrix(1 0 0 1 -133.95115661621094 174.2945556640625)">tipo_de_acao</text><path fill="none" stroke="#eee" paint-order="fill stroke markers" d=" M 702.2936360383644 275.0117653595763 L 882.2936360383644 275.0117653595763" stroke-miterlimit="10" stroke-dasharray=""/><rect fill="#F8F8F9" stroke="none" x="836.2447926545753" y="100.71720969551382" width="180" height="18" transform="matrix(1 0 0 1 -133.95115661621094 174.2945556640625)"/><text fill="#555" stroke="none" font-family="Roboto, &quot;Helvetica Neue&quot;, Arial, sans-serif" font-size="12px" font-style="normal" font-weight="normal" text-decoration="undefined" x="986.5846364045753" y="103.71720969551382" text-anchor="start" dominant-baseline="text-before-edge" transform="matrix(1 0 0 1 -133.95115661621094 174.2945556640625)">text</text><text fill="#555" stroke="none" font-family="Roboto, &quot;Helvetica Neue&quot;, Arial, sans-serif" font-size="12px" font-style="normal" font-weight="normal" text-decoration="undefined" x="848.2447926545753" y="103.71720969551382" text-anchor="start" dominant-baseline="text-before-edge" transform="matrix(1 0 0 1 -133.95115661621094 174.2945556640625)">tema</text><path fill="none" stroke="#eee" paint-order="fill stroke markers" d=" M 702.2936360383644 293.0117653595763 L 882.2936360383644 293.0117653595763" stroke-miterlimit="10" stroke-dasharray=""/><rect fill="#fff" stroke="none" x="832.7902844820943" y="-114.29455117095286" width="191.982421875" height="84" transform="matrix(1 0 0 1 -133.95115661621094 174.2945556640625)"/><rect fill="#adb5bd" stroke="none" x="832.7902844820943" y="-114.29455117095286" width="191.982421875" height="30" transform="matrix(1 0 0 1 -133.95115661621094 174.2945556640625)"/><text fill="#333" stroke="none" font-family="Roboto, &quot;Helvetica Neue&quot;, Arial, sans-serif" font-size="12px" font-style="normal" font-weight="bold" text-decoration="undefined" x="844.7902844820943" y="-105.29455117095286" text-anchor="start" dominant-baseline="text-before-edge" transform="matrix(1 0 0 1 -133.95115661621094 174.2945556640625)">dim_participante</text><rect fill="#F8F8F9" stroke="none" x="832.7902844820943" y="-84.29455117095286" width="191.982421875" height="18" transform="matrix(1 0 0 1 -133.95115661621094 174.2945556640625)"/><text fill="#555" stroke="none" font-family="Roboto, &quot;Helvetica Neue&quot;, Arial, sans-serif" font-size="12px" font-style="normal" font-weight="bold" text-decoration="undefined" x="977.0766919527973" y="-81.29455117095286" text-anchor="start" dominant-baseline="text-before-edge" transform="matrix(1 0 0 1 -133.95115661621094 174.2945556640625)">integer</text><text fill="#555" stroke="none" font-family="Roboto, &quot;Helvetica Neue&quot;, Arial, sans-serif" font-size="12px" font-style="normal" font-weight="bold" text-decoration="undefined" x="844.7902844820943" y="-81.29455117095286" text-anchor="start" dominant-baseline="text-before-edge" transform="matrix(1 0 0 1 -133.95115661621094 174.2945556640625)">sk_participante</text><path fill="none" stroke="#eee" paint-order="fill stroke markers" d=" M 698.8391278658834 108.00000449310964 L 890.8215497408833 108.00000449310964" stroke-miterlimit="10" stroke-dasharray=""/><rect fill="#F8F8F9" stroke="none" x="832.7902844820943" y="-66.29455117095286" width="191.982421875" height="18" transform="matrix(1 0 0 1 -133.95115661621094 174.2945556640625)"/><text fill="#555" stroke="none" font-family="Roboto, &quot;Helvetica Neue&quot;, Arial, sans-serif" font-size="12px" font-style="normal" font-weight="normal" text-decoration="undefined" x="978.9992688570942" y="-63.29455117095286" text-anchor="start" dominant-baseline="text-before-edge" transform="matrix(1 0 0 1 -133.95115661621094 174.2945556640625)">integer</text><text fill="#555" stroke="none" font-family="Roboto, &quot;Helvetica Neue&quot;, Arial, sans-serif" font-size="12px" font-style="normal" font-weight="normal" text-decoration="undefined" x="844.7902844820943" y="-63.29455117095286" text-anchor="start" dominant-baseline="text-before-edge" transform="matrix(1 0 0 1 -133.95115661621094 174.2945556640625)">idade</text><path fill="none" stroke="#eee" paint-order="fill stroke markers" d=" M 698.8391278658834 126.00000449310964 L 890.8215497408833 126.00000449310964" stroke-miterlimit="10" stroke-dasharray=""/><rect fill="#F8F8F9" stroke="none" x="832.7902844820943" y="-48.29455117095286" width="191.982421875" height="18" transform="matrix(1 0 0 1 -133.95115661621094 174.2945556640625)"/><text fill="#555" stroke="none" font-family="Roboto, &quot;Helvetica Neue&quot;, Arial, sans-serif" font-size="12px" font-style="normal" font-weight="normal" text-decoration="undefined" x="995.1125501070942" y="-45.29455117095286" text-anchor="start" dominant-baseline="text-before-edge" transform="matrix(1 0 0 1 -133.95115661621094 174.2945556640625)">text</text><text fill="#555" stroke="none" font-family="Roboto, &quot;Helvetica Neue&quot;, Arial, sans-serif" font-size="12px" font-style="normal" font-weight="normal" text-decoration="undefined" x="844.7902844820943" y="-45.29455117095286" text-anchor="start" dominant-baseline="text-before-edge" transform="matrix(1 0 0 1 -133.95115661621094 174.2945556640625)">ano_ensino_medio</text><path fill="none" stroke="#eee" paint-order="fill stroke markers" d=" M 698.8391278658834 144.00000449310966 L 890.8215497408833 144.00000449310966" stroke-miterlimit="10" stroke-dasharray=""/><rect fill="#fff" stroke="none" x="482.16012519924806" y="240.41382094038403" width="235.03125" height="102" transform="matrix(1 0 0 1 -133.95115661621094 174.2945556640625)"/><rect fill="#adb5bd" stroke="none" x="482.16012519924806" y="240.41382094038403" width="235.03125" height="30" transform="matrix(1 0 0 1 -133.95115661621094 174.2945556640625)"/><text fill="#333" stroke="none" font-family="Roboto, &quot;Helvetica Neue&quot;, Arial, sans-serif" font-size="12px" font-style="normal" font-weight="bold" text-decoration="undefined" x="494.16012519924806" y="249.41382094038403" text-anchor="start" dominant-baseline="text-before-edge" transform="matrix(1 0 0 1 -133.95115661621094 174.2945556640625)">fato_evento_resumo</text><rect fill="#F8F8F9" stroke="none" x="482.16012519924806" y="270.413820940384" width="235.03125" height="18" transform="matrix(1 0 0 1 -133.95115661621094 174.2945556640625)"/><text fill="#555" stroke="none" font-family="Roboto, &quot;Helvetica Neue&quot;, Arial, sans-serif" font-size="12px" font-style="normal" font-weight="bold" text-decoration="undefined" x="669.4953607949512" y="273.413820940384" text-anchor="start" dominant-baseline="text-before-edge" transform="matrix(1 0 0 1 -133.95115661621094 174.2945556640625)">integer</text><text fill="#555" stroke="none" font-family="Roboto, &quot;Helvetica Neue&quot;, Arial, sans-serif" font-size="12px" font-style="normal" font-weight="bold" text-decoration="undefined" x="494.16012519924806" y="273.413820940384" text-anchor="start" dominant-baseline="text-before-edge" transform="matrix(1 0 0 1 -133.95115661621094 174.2945556640625)">sk_fato_evento_resumo</text><path fill="none" stroke="#eee" paint-order="fill stroke markers" d=" M 348.2089685830371 462.7083766044465 L 583.2402185830372 462.7083766044465" stroke-miterlimit="10" stroke-dasharray=""/><rect fill="#F8F8F9" stroke="none" x="482.16012519924806" y="288.413820940384" width="235.03125" height="18" transform="matrix(1 0 0 1 -133.95115661621094 174.2945556640625)"/><text fill="#555" stroke="none" font-family="Roboto, &quot;Helvetica Neue&quot;, Arial, sans-serif" font-size="12px" font-style="normal" font-weight="normal" text-decoration="undefined" x="671.4179376992481" y="291.413820940384" text-anchor="start" dominant-baseline="text-before-edge" transform="matrix(1 0 0 1 -133.95115661621094 174.2945556640625)">integer</text><text fill="#555" stroke="none" font-family="Roboto, &quot;Helvetica Neue&quot;, Arial, sans-serif" font-size="12px" font-style="normal" font-weight="normal" text-decoration="undefined" x="494.16012519924806" y="291.413820940384" text-anchor="start" dominant-baseline="text-before-edge" transform="matrix(1 0 0 1 -133.95115661621094 174.2945556640625)">sk_evento</text><path fill="none" stroke="#eee" paint-order="fill stroke markers" d=" M 348.2089685830371 480.7083766044465 L 583.2402185830372 480.7083766044465" stroke-miterlimit="10" stroke-dasharray=""/><rect fill="#F8F8F9" stroke="none" x="482.16012519924806" y="306.413820940384" width="235.03125" height="18" transform="matrix(1 0 0 1 -133.95115661621094 174.2945556640625)"/><text fill="#555" stroke="none" font-family="Roboto, &quot;Helvetica Neue&quot;, Arial, sans-serif" font-size="12px" font-style="normal" font-weight="normal" text-decoration="undefined" x="671.4179376992481" y="309.413820940384" text-anchor="start" dominant-baseline="text-before-edge" transform="matrix(1 0 0 1 -133.95115661621094 174.2945556640625)">integer</text><text fill="#555" stroke="none" font-family="Roboto, &quot;Helvetica Neue&quot;, Arial, sans-serif" font-size="12px" font-style="normal" font-weight="normal" text-decoration="undefined" x="494.16012519924806" y="309.413820940384" text-anchor="start" dominant-baseline="text-before-edge" transform="matrix(1 0 0 1 -133.95115661621094 174.2945556640625)">sk_tempo</text><path fill="none" stroke="#eee" paint-order="fill stroke markers" d=" M 348.2089685830371 498.7083766044465 L 583.2402185830372 498.7083766044465" stroke-miterlimit="10" stroke-dasharray=""/><rect fill="#F8F8F9" stroke="none" x="482.16012519924806" y="324.413820940384" width="235.03125" height="18" transform="matrix(1 0 0 1 -133.95115661621094 174.2945556640625)"/><text fill="#555" stroke="none" font-family="Roboto, &quot;Helvetica Neue&quot;, Arial, sans-serif" font-size="12px" font-style="normal" font-weight="normal" text-decoration="undefined" x="671.4179376992481" y="327.413820940384" text-anchor="start" dominant-baseline="text-before-edge" transform="matrix(1 0 0 1 -133.95115661621094 174.2945556640625)">integer</text><text fill="#555" stroke="none" font-family="Roboto, &quot;Helvetica Neue&quot;, Arial, sans-serif" font-size="12px" font-style="normal" font-weight="normal" text-decoration="undefined" x="494.16012519924806" y="327.413820940384" text-anchor="start" dominant-baseline="text-before-edge" transform="matrix(1 0 0 1 -133.95115661621094 174.2945556640625)">qtd_participantes</text><path fill="none" stroke="#eee" paint-order="fill stroke markers" d=" M 348.2089685830371 516.7083766044466 L 583.2402185830372 516.7083766044466" stroke-miterlimit="10" stroke-dasharray=""/></g><g><text fill="rgb(0,0,0)" stroke="none" font-family="Roboto, &quot;Helvetica Neue&quot;, Arial, sans-serif" font-size="12px" font-style="italic" font-weight="normal" text-decoration="undefined" x="10" y="566.7083721113369" text-anchor="start" dominant-baseline="text-after-edge" transform="matrix(1 0 0 1 0 0)" fill-opacity="0.35">Generated with erd.dbdesigner.net</text></g></g></svg>